<mxfile host="app.diagrams.net" agent="Mozilla/5.0 (X11; Linux x86_64) AppleWebKit/537.36 (KHTML, like Gecko) Chrome/136.0.0.0 Safari/537.36" version="27.0.5">
  <diagram id="opJ2Pa9YIYNfCN_4eW-s" name="Page-1">
    <mxGraphModel dx="1141" dy="633" grid="1" gridSize="10" guides="1" tooltips="1" connect="1" arrows="1" fold="1" page="1" pageScale="1" pageWidth="850" pageHeight="1100" math="0" shadow="0">
      <root>
        <mxCell id="0" />
        <mxCell id="1" parent="0" />
        <mxCell id="kV3k6WPngA6IC4UfD5BZ-1" value="Main" style="swimlane;fontStyle=1;align=center;verticalAlign=top;childLayout=stackLayout;horizontal=1;startSize=26;horizontalStack=0;resizeParent=1;resizeParentMax=0;resizeLast=0;collapsible=1;marginBottom=0;whiteSpace=wrap;html=1;" vertex="1" parent="1">
          <mxGeometry x="480" width="110" height="60" as="geometry" />
        </mxCell>
        <mxCell id="kV3k6WPngA6IC4UfD5BZ-3" value="" style="line;strokeWidth=1;fillColor=none;align=left;verticalAlign=middle;spacingTop=-1;spacingLeft=3;spacingRight=3;rotatable=0;labelPosition=right;points=[];portConstraint=eastwest;strokeColor=inherit;" vertex="1" parent="kV3k6WPngA6IC4UfD5BZ-1">
          <mxGeometry y="26" width="110" height="8" as="geometry" />
        </mxCell>
        <mxCell id="kV3k6WPngA6IC4UfD5BZ-4" value="+ main(argc, argv)" style="text;strokeColor=none;fillColor=none;align=left;verticalAlign=top;spacingLeft=4;spacingRight=4;overflow=hidden;rotatable=0;points=[[0,0.5],[1,0.5]];portConstraint=eastwest;whiteSpace=wrap;html=1;" vertex="1" parent="kV3k6WPngA6IC4UfD5BZ-1">
          <mxGeometry y="34" width="110" height="26" as="geometry" />
        </mxCell>
        <mxCell id="kV3k6WPngA6IC4UfD5BZ-10" value="&lt;b&gt;Config&lt;/b&gt;" style="swimlane;fontStyle=0;childLayout=stackLayout;horizontal=1;startSize=26;fillColor=none;horizontalStack=0;resizeParent=1;resizeParentMax=0;resizeLast=0;collapsible=1;marginBottom=0;whiteSpace=wrap;html=1;" vertex="1" parent="1">
          <mxGeometry x="120" y="80" width="140" height="180" as="geometry" />
        </mxCell>
        <mxCell id="kV3k6WPngA6IC4UfD5BZ-11" value="&lt;div&gt;+double t0&lt;/div&gt;&lt;div&gt;+double t_max&lt;/div&gt;&lt;div&gt;+double h&lt;/div&gt;&lt;div&gt;+double target_error&lt;/div&gt;&lt;div&gt;+int max_steps&lt;/div&gt;&lt;div&gt;+int threads&lt;/div&gt;&lt;div&gt;+bool draw&lt;/div&gt;&lt;div&gt;+bool manual&lt;/div&gt;&lt;div&gt;+bool step_time&lt;/div&gt;&lt;div&gt;+string methodÐ²&lt;/div&gt;&lt;div&gt;&lt;br&gt;&lt;/div&gt;" style="text;strokeColor=none;fillColor=none;align=left;verticalAlign=top;spacingLeft=4;spacingRight=4;overflow=hidden;rotatable=0;points=[[0,0.5],[1,0.5]];portConstraint=eastwest;whiteSpace=wrap;html=1;" vertex="1" parent="kV3k6WPngA6IC4UfD5BZ-10">
          <mxGeometry y="26" width="140" height="154" as="geometry" />
        </mxCell>
        <mxCell id="kV3k6WPngA6IC4UfD5BZ-14" value="&lt;b&gt;Result&lt;/b&gt;" style="swimlane;fontStyle=0;childLayout=stackLayout;horizontal=1;startSize=26;fillColor=none;horizontalStack=0;resizeParent=1;resizeParentMax=0;resizeLast=0;collapsible=1;marginBottom=0;whiteSpace=wrap;html=1;" vertex="1" parent="1">
          <mxGeometry x="120" y="340" width="140" height="90" as="geometry" />
        </mxCell>
        <mxCell id="kV3k6WPngA6IC4UfD5BZ-15" value="&lt;div&gt;&lt;div&gt;+MatrixXd P&lt;/div&gt;&lt;div&gt;+int step&lt;/div&gt;&lt;div&gt;+double last_error&lt;/div&gt;&lt;div&gt;+vector&amp;lt;double&amp;gt;* points&lt;/div&gt;&lt;/div&gt;&lt;div&gt;&lt;br&gt;&lt;/div&gt;" style="text;strokeColor=none;fillColor=none;align=left;verticalAlign=top;spacingLeft=4;spacingRight=4;overflow=hidden;rotatable=0;points=[[0,0.5],[1,0.5]];portConstraint=eastwest;whiteSpace=wrap;html=1;" vertex="1" parent="kV3k6WPngA6IC4UfD5BZ-14">
          <mxGeometry y="26" width="140" height="64" as="geometry" />
        </mxCell>
        <mxCell id="kV3k6WPngA6IC4UfD5BZ-20" value="Adams3" style="swimlane;fontStyle=1;align=center;verticalAlign=top;childLayout=stackLayout;horizontal=1;startSize=26;horizontalStack=0;resizeParent=1;resizeParentMax=0;resizeLast=0;collapsible=1;marginBottom=0;whiteSpace=wrap;html=1;" vertex="1" parent="1">
          <mxGeometry x="330" y="440" width="370" height="60" as="geometry" />
        </mxCell>
        <mxCell id="kV3k6WPngA6IC4UfD5BZ-21" value="" style="line;strokeWidth=1;fillColor=none;align=left;verticalAlign=middle;spacingTop=-1;spacingLeft=3;spacingRight=3;rotatable=0;labelPosition=right;points=[];portConstraint=eastwest;strokeColor=inherit;" vertex="1" parent="kV3k6WPngA6IC4UfD5BZ-20">
          <mxGeometry y="26" width="370" height="8" as="geometry" />
        </mxCell>
        <mxCell id="kV3k6WPngA6IC4UfD5BZ-22" value="+MatrixXd step (RiccatiSolver, MatrixXd, double, deque&amp;lt;MatrixXd&amp;gt;)" style="text;strokeColor=none;fillColor=none;align=left;verticalAlign=top;spacingLeft=4;spacingRight=4;overflow=hidden;rotatable=0;points=[[0,0.5],[1,0.5]];portConstraint=eastwest;whiteSpace=wrap;html=1;" vertex="1" parent="kV3k6WPngA6IC4UfD5BZ-20">
          <mxGeometry y="34" width="370" height="26" as="geometry" />
        </mxCell>
        <mxCell id="kV3k6WPngA6IC4UfD5BZ-25" value="Runge4" style="swimlane;fontStyle=1;align=center;verticalAlign=top;childLayout=stackLayout;horizontal=1;startSize=26;horizontalStack=0;resizeParent=1;resizeParentMax=0;resizeLast=0;collapsible=1;marginBottom=0;whiteSpace=wrap;html=1;" vertex="1" parent="1">
          <mxGeometry x="330" y="346" width="370" height="60" as="geometry" />
        </mxCell>
        <mxCell id="kV3k6WPngA6IC4UfD5BZ-26" value="" style="line;strokeWidth=1;fillColor=none;align=left;verticalAlign=middle;spacingTop=-1;spacingLeft=3;spacingRight=3;rotatable=0;labelPosition=right;points=[];portConstraint=eastwest;strokeColor=inherit;" vertex="1" parent="kV3k6WPngA6IC4UfD5BZ-25">
          <mxGeometry y="26" width="370" height="8" as="geometry" />
        </mxCell>
        <mxCell id="kV3k6WPngA6IC4UfD5BZ-27" value="+MatrixXd step (RiccatiSolver, MatrixXd, double, deque&amp;lt;MatrixXd&amp;gt;)" style="text;strokeColor=none;fillColor=none;align=left;verticalAlign=top;spacingLeft=4;spacingRight=4;overflow=hidden;rotatable=0;points=[[0,0.5],[1,0.5]];portConstraint=eastwest;whiteSpace=wrap;html=1;" vertex="1" parent="kV3k6WPngA6IC4UfD5BZ-25">
          <mxGeometry y="34" width="370" height="26" as="geometry" />
        </mxCell>
        <mxCell id="kV3k6WPngA6IC4UfD5BZ-28" value="Solver&amp;lt;Method&amp;gt;" style="swimlane;fontStyle=1;align=center;verticalAlign=top;childLayout=stackLayout;horizontal=1;startSize=26;horizontalStack=0;resizeParent=1;resizeParentMax=0;resizeLast=0;collapsible=1;marginBottom=0;whiteSpace=wrap;html=1;" vertex="1" parent="1">
          <mxGeometry x="780" y="320" width="340" height="86" as="geometry" />
        </mxCell>
        <mxCell id="kV3k6WPngA6IC4UfD5BZ-30" value="-inherits RiccatiSolver" style="text;strokeColor=none;fillColor=none;align=left;verticalAlign=top;spacingLeft=4;spacingRight=4;overflow=hidden;rotatable=0;points=[[0,0.5],[1,0.5]];portConstraint=eastwest;whiteSpace=wrap;html=1;" vertex="1" parent="kV3k6WPngA6IC4UfD5BZ-28">
          <mxGeometry y="26" width="340" height="26" as="geometry" />
        </mxCell>
        <mxCell id="kV3k6WPngA6IC4UfD5BZ-29" value="" style="line;strokeWidth=1;fillColor=none;align=left;verticalAlign=middle;spacingTop=-1;spacingLeft=3;spacingRight=3;rotatable=0;labelPosition=right;points=[];portConstraint=eastwest;strokeColor=inherit;" vertex="1" parent="kV3k6WPngA6IC4UfD5BZ-28">
          <mxGeometry y="52" width="340" height="8" as="geometry" />
        </mxCell>
        <mxCell id="kV3k6WPngA6IC4UfD5BZ-31" value="+MatrixXd update_step(MatrixXd, double, deque&amp;lt;MatrixXd&amp;gt;)" style="text;strokeColor=none;fillColor=none;align=left;verticalAlign=top;spacingLeft=4;spacingRight=4;overflow=hidden;rotatable=0;points=[[0,0.5],[1,0.5]];portConstraint=eastwest;whiteSpace=wrap;html=1;" vertex="1" parent="kV3k6WPngA6IC4UfD5BZ-28">
          <mxGeometry y="60" width="340" height="26" as="geometry" />
        </mxCell>
        <mxCell id="kV3k6WPngA6IC4UfD5BZ-33" value="Factory" style="swimlane;fontStyle=1;align=center;verticalAlign=top;childLayout=stackLayout;horizontal=1;startSize=26;horizontalStack=0;resizeParent=1;resizeParentMax=0;resizeLast=0;collapsible=1;marginBottom=0;whiteSpace=wrap;html=1;" vertex="1" parent="1">
          <mxGeometry x="770" y="115" width="360" height="60" as="geometry" />
        </mxCell>
        <mxCell id="kV3k6WPngA6IC4UfD5BZ-34" value="" style="line;strokeWidth=1;fillColor=none;align=left;verticalAlign=middle;spacingTop=-1;spacingLeft=3;spacingRight=3;rotatable=0;labelPosition=right;points=[];portConstraint=eastwest;strokeColor=inherit;" vertex="1" parent="kV3k6WPngA6IC4UfD5BZ-33">
          <mxGeometry y="26" width="360" height="8" as="geometry" />
        </mxCell>
        <mxCell id="kV3k6WPngA6IC4UfD5BZ-35" value="+create_solver(method, E, A, B, Q, P): unique_ptr&amp;lt;RiccatiSolver&amp;gt;" style="text;strokeColor=none;fillColor=none;align=left;verticalAlign=top;spacingLeft=4;spacingRight=4;overflow=hidden;rotatable=0;points=[[0,0.5],[1,0.5]];portConstraint=eastwest;whiteSpace=wrap;html=1;" vertex="1" parent="kV3k6WPngA6IC4UfD5BZ-33">
          <mxGeometry y="34" width="360" height="26" as="geometry" />
        </mxCell>
        <mxCell id="kV3k6WPngA6IC4UfD5BZ-36" value="RiccatiSolver" style="swimlane;fontStyle=1;align=center;verticalAlign=top;childLayout=stackLayout;horizontal=1;startSize=26;horizontalStack=0;resizeParent=1;resizeParentMax=0;resizeLast=0;collapsible=1;marginBottom=0;whiteSpace=wrap;html=1;" vertex="1" parent="1">
          <mxGeometry x="330" y="115" width="410" height="160" as="geometry" />
        </mxCell>
        <mxCell id="kV3k6WPngA6IC4UfD5BZ-37" value="-MatrixXd E_, A_, BRB_, Q_, initial_P_" style="text;strokeColor=none;fillColor=none;align=left;verticalAlign=top;spacingLeft=4;spacingRight=4;overflow=hidden;rotatable=0;points=[[0,0.5],[1,0.5]];portConstraint=eastwest;whiteSpace=wrap;html=1;" vertex="1" parent="kV3k6WPngA6IC4UfD5BZ-36">
          <mxGeometry y="26" width="410" height="26" as="geometry" />
        </mxCell>
        <mxCell id="kV3k6WPngA6IC4UfD5BZ-38" value="" style="line;strokeWidth=1;fillColor=none;align=left;verticalAlign=middle;spacingTop=-1;spacingLeft=3;spacingRight=3;rotatable=0;labelPosition=right;points=[];portConstraint=eastwest;strokeColor=inherit;" vertex="1" parent="kV3k6WPngA6IC4UfD5BZ-36">
          <mxGeometry y="52" width="410" height="8" as="geometry" />
        </mxCell>
        <mxCell id="kV3k6WPngA6IC4UfD5BZ-39" value="&lt;div&gt;+Result solve(Config cfg)&lt;/div&gt;&lt;div&gt;+MatrixXd riccati_equation(MatrixXd P)&lt;/div&gt;&lt;div&gt;+MatrixXd verify_solution(MatrixXd P)&lt;/div&gt;&lt;div&gt;+deque&amp;lt;MatrixXd&amp;gt; acceleration_points(int, double, MatrixXd)&lt;/div&gt;&lt;div&gt;+deque&amp;lt;MatrixXd&amp;gt; acceleration_points(int, double)&lt;/div&gt;&lt;div&gt;&amp;lt;&amp;lt;abstract&amp;gt;&amp;gt; +MatrixXd update_step(MatrixXd, double, deque&amp;lt;MatrixXd&amp;gt;)&lt;/div&gt;&lt;div&gt;&lt;br&gt;&lt;/div&gt;" style="text;strokeColor=none;fillColor=none;align=left;verticalAlign=top;spacingLeft=4;spacingRight=4;overflow=hidden;rotatable=0;points=[[0,0.5],[1,0.5]];portConstraint=eastwest;whiteSpace=wrap;html=1;" vertex="1" parent="kV3k6WPngA6IC4UfD5BZ-36">
          <mxGeometry y="60" width="410" height="100" as="geometry" />
        </mxCell>
        <mxCell id="kV3k6WPngA6IC4UfD5BZ-40" value="" style="endArrow=open;endFill=1;endSize=12;html=1;rounded=0;entryX=0.5;entryY=0;entryDx=0;entryDy=0;exitX=0.504;exitY=0.971;exitDx=0;exitDy=0;exitPerimeter=0;" edge="1" parent="1" source="kV3k6WPngA6IC4UfD5BZ-4" target="kV3k6WPngA6IC4UfD5BZ-10">
          <mxGeometry width="160" relative="1" as="geometry">
            <mxPoint x="150" y="400" as="sourcePoint" />
            <mxPoint x="310" y="400" as="targetPoint" />
          </mxGeometry>
        </mxCell>
        <mxCell id="kV3k6WPngA6IC4UfD5BZ-41" value="" style="endArrow=open;endFill=1;endSize=12;html=1;rounded=0;entryX=0.5;entryY=0;entryDx=0;entryDy=0;exitX=0.504;exitY=0.998;exitDx=0;exitDy=0;exitPerimeter=0;" edge="1" parent="1" source="kV3k6WPngA6IC4UfD5BZ-4" target="kV3k6WPngA6IC4UfD5BZ-36">
          <mxGeometry width="160" relative="1" as="geometry">
            <mxPoint x="506" y="10" as="sourcePoint" />
            <mxPoint x="450" y="100" as="targetPoint" />
          </mxGeometry>
        </mxCell>
        <mxCell id="kV3k6WPngA6IC4UfD5BZ-42" value="" style="endArrow=open;endFill=1;endSize=12;html=1;rounded=0;exitX=0;exitY=0;exitDx=0;exitDy=0;exitPerimeter=0;" edge="1" parent="1" source="kV3k6WPngA6IC4UfD5BZ-39" target="kV3k6WPngA6IC4UfD5BZ-10">
          <mxGeometry width="160" relative="1" as="geometry">
            <mxPoint x="316" y="20" as="sourcePoint" />
            <mxPoint x="260" y="110" as="targetPoint" />
          </mxGeometry>
        </mxCell>
        <mxCell id="kV3k6WPngA6IC4UfD5BZ-43" value="" style="endArrow=open;endFill=1;endSize=12;html=1;rounded=0;" edge="1" parent="1" source="kV3k6WPngA6IC4UfD5BZ-28" target="kV3k6WPngA6IC4UfD5BZ-39">
          <mxGeometry width="160" relative="1" as="geometry">
            <mxPoint x="410" y="360" as="sourcePoint" />
            <mxPoint x="570" y="360" as="targetPoint" />
          </mxGeometry>
        </mxCell>
        <mxCell id="kV3k6WPngA6IC4UfD5BZ-44" value="" style="endArrow=open;endFill=1;endSize=12;html=1;rounded=0;" edge="1" parent="1" source="kV3k6WPngA6IC4UfD5BZ-28" target="kV3k6WPngA6IC4UfD5BZ-25">
          <mxGeometry width="160" relative="1" as="geometry">
            <mxPoint x="526" y="330" as="sourcePoint" />
            <mxPoint x="470" y="420" as="targetPoint" />
          </mxGeometry>
        </mxCell>
        <mxCell id="kV3k6WPngA6IC4UfD5BZ-45" value="" style="endArrow=open;endFill=1;endSize=12;html=1;rounded=0;entryX=1;entryY=0.376;entryDx=0;entryDy=0;entryPerimeter=0;exitX=0.003;exitY=0.859;exitDx=0;exitDy=0;exitPerimeter=0;" edge="1" parent="1" source="kV3k6WPngA6IC4UfD5BZ-30" target="kV3k6WPngA6IC4UfD5BZ-20">
          <mxGeometry width="160" relative="1" as="geometry">
            <mxPoint x="536" y="340" as="sourcePoint" />
            <mxPoint x="480" y="430" as="targetPoint" />
          </mxGeometry>
        </mxCell>
        <mxCell id="kV3k6WPngA6IC4UfD5BZ-46" value="" style="endArrow=open;endFill=1;endSize=12;html=1;rounded=0;exitX=0.504;exitY=1.046;exitDx=0;exitDy=0;exitPerimeter=0;entryX=0.5;entryY=0;entryDx=0;entryDy=0;" edge="1" parent="1" source="kV3k6WPngA6IC4UfD5BZ-4" target="kV3k6WPngA6IC4UfD5BZ-33">
          <mxGeometry width="160" relative="1" as="geometry">
            <mxPoint x="546" y="350" as="sourcePoint" />
            <mxPoint x="490" y="440" as="targetPoint" />
          </mxGeometry>
        </mxCell>
        <mxCell id="kV3k6WPngA6IC4UfD5BZ-47" value="" style="endArrow=open;endFill=1;endSize=12;html=1;rounded=0;" edge="1" parent="1" source="kV3k6WPngA6IC4UfD5BZ-39" target="kV3k6WPngA6IC4UfD5BZ-14">
          <mxGeometry width="160" relative="1" as="geometry">
            <mxPoint x="556" y="360" as="sourcePoint" />
            <mxPoint x="450" y="430" as="targetPoint" />
          </mxGeometry>
        </mxCell>
        <mxCell id="kV3k6WPngA6IC4UfD5BZ-48" value="&lt;font style=&quot;font-size: 16px;&quot;&gt;.......&lt;/font&gt;&lt;div&gt;&lt;font style=&quot;font-size: 16px;&quot;&gt;.......&lt;/font&gt;&lt;/div&gt;" style="text;html=1;align=center;verticalAlign=middle;resizable=0;points=[];autosize=1;strokeColor=none;fillColor=none;" vertex="1" parent="1">
          <mxGeometry x="490" y="395" width="50" height="50" as="geometry" />
        </mxCell>
      </root>
    </mxGraphModel>
  </diagram>
</mxfile>
